<?xml version="1.0" encoding="utf-8"?>
<!-- Generator: Adobe Illustrator 20.0.0, SVG Export Plug-In . SVG Version: 6.00 Build 0)  -->
<svg version="1.1" id="Layer_1" xmlns="http://www.w3.org/2000/svg" xmlns:xlink="http://www.w3.org/1999/xlink" x="0px" y="0px"
	 viewBox="0 0 1072 168.3" style="enable-background:new 0 0 1072 168.3;" xml:space="preserve">
<style type="text/css">
	.st0{fill:#FFFFFF;}
</style>
<g>
	<path class="st0" d="M0.5,165.1V3.7H60c47.6,0,62.4,21.3,62.4,54.3c0,37.3-24.7,59-64.2,59H35.3v48H0.5V165.1z M56.4,89
		c19.1,0,30.1-9.4,30.1-30.1c0-19.3-9.4-27.4-25.4-27.4H35.3V89H56.4z"/>
	<path class="st0" d="M185,87.2C185,37.8,210.4,1,261.5,1c51.6,0,71.6,37.7,71.6,81c0,45.6-21.1,85.7-75,85.7
		C204.7,167.8,185,128.5,185,87.2z M298.6,82.9c0-32.5-9.4-53.4-38.2-53.4c-26.3,0-40.6,19.3-40.6,55.9c0,37,14.1,53.9,39.5,53.9
		C285.3,139.3,298.6,119.7,298.6,82.9z"/>
	<path class="st0" d="M407.4,3.7h34.8V137h64.9v28.1h-99.7L407.4,3.7L407.4,3.7z"/>
	<path class="st0" d="M538.3,3.7h37.9L609,79.8h0.7l31.9-76.1H679l-53.4,108v53.4H591v-53.2L538.3,3.7z"/>
	<path class="st0" d="M727,87.2C727,37.8,752.4,1,803.5,1c51.6,0,71.6,37.7,71.6,81c0,45.6-21.1,85.7-75,85.7
		C746.8,167.8,727,128.5,727,87.2z M840.6,82.9c0-32.5-9.4-53.4-38.2-53.4c-26.3,0-40.6,19.3-40.6,55.9c0,37,14.1,53.9,39.5,53.9
		C827.3,139.3,840.6,119.7,840.6,82.9z"/>
	<path class="st0" d="M949.4,165.1V3.7h59.5c47.6,0,62.4,21.3,62.4,54.3c0,37.3-24.7,59-64.2,59h-22.9v48h-34.8V165.1z M1005.3,89
		c19.1,0,30.1-9.4,30.1-30.1c0-19.3-9.4-27.4-25.4-27.4h-25.8V89H1005.3z"/>
</g>
</svg>
